<?xml version="1.0" encoding="utf-8"?>
<!-- Generator: Adobe Illustrator 23.0.2, SVG Export Plug-In . SVG Version: 6.00 Build 0)  -->
<svg version="1.1" id="Layer_1" xmlns="http://www.w3.org/2000/svg" xmlns:xlink="http://www.w3.org/1999/xlink" x="0px" y="0px"
	 viewBox="0 0 473.9 473.9" style="enable-background:new 0 0 473.9 473.9;" xml:space="preserve">
<style type="text/css">
	.st0{fill:#B2215A;}
	.st1{fill-rule:evenodd;clip-rule:evenodd;fill:#FFFFFF;}
</style>
<circle class="st0" cx="237" cy="237" r="237"/>
<g>
	<path class="st1" d="M237,402c-91,0-165-74-165-165c0-91,74-165,165-165S402,146,402,237C402,328,328,402,237,402z M368.9,258.4
		c-4.6-1.4-41.4-12.4-83.2-5.7c17.5,48,24.6,87.1,26,95.2C341.6,327.7,362.9,295.6,368.9,258.4z M289.2,360.2
		c-2-11.7-9.8-52.6-28.5-101.3c-0.3,0.1-0.6,0.2-0.9,0.3c-75.3,26.2-102.4,78.5-104.8,83.4c22.6,17.7,51.1,28.2,82,28.2
		C255.5,370.8,273.1,367,289.2,360.2z M137.7,326.5c3-5.2,39.7-65.9,108.6-88.2c1.7-0.6,3.5-1.1,5.3-1.6c-3.3-7.6-7-15.2-10.8-22.7
		c-66.7,20-131.4,19.1-137.3,19c0,1.4-0.1,2.7-0.1,4.1C103.4,271.5,116.4,302.8,137.7,326.5z M106.2,209.8c6,0.1,61,0.3,123.5-16.3
		c-22.1-39.4-46-72.4-49.5-77.3C142.8,133.9,114.9,168.4,106.2,209.8z M205.7,107.3c3.7,4.9,28,38,49.9,78.2
		c47.5-17.8,67.6-44.8,70-48.2c-23.6-20.9-54.6-33.7-88.6-33.7C226.2,103.6,215.7,104.9,205.7,107.3z M340.4,152.7
		c-2.8,3.8-25.2,32.5-74.6,52.7c3.1,6.4,6.1,12.9,8.9,19.4c1,2.3,1.9,4.6,2.9,6.9c44.5-5.6,88.6,3.4,93,4.3
		C370.3,204.4,359,175.5,340.4,152.7z"/>
</g>
</svg>
