<svg id="Layer_1" data-name="Layer 1" xmlns="http://www.w3.org/2000/svg" xmlns:xlink="http://www.w3.org/1999/xlink" viewBox="0 0 474 474"><defs><style>.cls-1{fill:url(#linear-gradient);}.cls-2{fill:#fff;}</style><linearGradient id="linear-gradient" y1="237" x2="474" y2="237" gradientUnits="userSpaceOnUse"><stop offset="0" stop-color="#fd5"/><stop offset="0.5" stop-color="#ff543e"/><stop offset="1" stop-color="#c837ab"/></linearGradient></defs><title>instagram</title><circle class="cls-1" cx="237" cy="237" r="237"/><path class="cls-2" d="M237.15,90.11c-60.22,0-117.41-5.36-139.26,50.7-9,23.16-7.71,53.23-7.71,96.29,0,37.78-1.21,73.29,7.71,96.26,21.8,56.1,79.45,50.72,139.23,50.72,57.67,0,117.13,6,139.24-50.72,9-23.38,7.72-53,7.72-96.26,0-57.43,3.16-94.5-24.69-122.33-28.19-28.2-66.32-24.66-122.3-24.66ZM224,116.6c125.63-.2,141.62-14.17,132.79,179.84-3.13,68.62-55.38,61.09-119.6,61.09-117.1,0-120.47-3.35-120.47-120.5C116.7,118.52,126,116.66,224,116.56ZM315.61,141a17.64,17.64,0,1,0,17.63,17.64A17.63,17.63,0,0,0,315.61,141Zm-78.46,20.62A75.48,75.48,0,1,0,312.6,237.1a75.47,75.47,0,0,0-75.45-75.49Zm0,26.49c64.77,0,64.86,98,0,98S172.3,188.1,237.15,188.1Z" transform="translate(-0.15 -0.12)"/></svg>